<svg width="382" height="439" viewBox="0 0 382 439" xmlns="http://www.w3.org/2000/svg"><title>Page 1</title><g fill="none" fill-rule="evenodd"><path d="M190.942 439L0 329.267V109.8L190.942.067 381.885 109.8v219.467L190.942 439z" fill="#FFF"/><path d="M190.942 411.873L24.86 316.427V125.534L190.94 30.087l166.083 95.447v190.893l-166.083 95.446z" fill="#2F3849"/><path d="M172.322 260.56c-1.263 6.072-3.58 11.65-6.962 16.73-3.38 5.08-8.088 9.272-14.12 12.57-6.034 3.297-13.822 4.95-23.37 4.95-11.93 0-21.875-3.07-29.83-9.206-7.956-6.137-13.26-14.022-15.91-23.66l30.03-10.095c.926 3.696 2.616 6.667 5.072 8.91 2.452 2.244 5.468 3.363 9.048 3.363 5.57 0 9.247-1.91 11.04-5.74 1.788-3.827 2.683-8.84 2.683-15.046v-92.45h34.21v92.25c0 5.546-.633 11.354-1.89 17.423M276.834 187.312c-2.92-3.692-6.732-6.632-11.437-8.81-4.708-2.177-9.248-3.267-13.624-3.267-2.255 0-4.543.2-6.86.595-2.323.396-4.41 1.156-6.265 2.277a15.416 15.416 0 0 0-4.673 4.355c-1.263 1.783-1.89 4.06-1.89 6.83 0 2.377.498 4.355 1.49 5.94.997 1.583 2.453 2.97 4.376 4.156 1.92 1.19 4.21 2.277 6.864 3.267 2.65.99 5.63 2.014 8.95 3.07a466.166 466.166 0 0 1 14.915 5.245c5.17 1.916 9.874 4.454 14.12 7.62 4.24 3.17 7.756 7.097 10.542 11.78 2.783 4.688 4.175 10.526 4.175 17.52 0 8.05-1.49 15.015-4.474 20.886-2.985 5.875-6.996 10.723-12.034 14.55-5.04 3.83-10.807 6.667-17.303 8.514-6.498 1.845-13.193 2.77-20.086 2.77-10.077 0-19.823-1.75-29.237-5.244-9.415-3.498-17.236-8.48-23.468-14.947l22.275-22.57c3.447 4.224 7.987 7.754 13.623 10.59 5.635 2.84 11.237 4.257 16.808 4.257 2.517 0 4.973-.262 7.358-.79 2.387-.527 4.474-1.386 6.266-2.574 1.788-1.188 3.213-2.773 4.275-4.752 1.06-1.98 1.59-4.355 1.59-7.126 0-2.638-.666-4.88-1.988-6.73-1.327-1.847-3.218-3.53-5.67-5.05-2.454-1.515-5.503-2.9-9.147-4.156a488.43 488.43 0 0 0-12.43-4.06 119.276 119.276 0 0 1-13.227-5.145c-4.31-1.98-8.153-4.52-11.534-7.622-3.383-3.1-6.102-6.86-8.155-11.284-2.058-4.42-3.083-9.8-3.083-16.135 0-7.783 1.59-14.45 4.774-19.994 3.18-5.542 7.358-10.096 12.53-13.66 5.17-3.562 11.004-6.167 17.5-7.818a79.72 79.72 0 0 1 19.692-2.474c7.954 0 16.074 1.455 24.36 4.353 8.285 2.907 15.546 7.197 21.778 12.87l-21.676 22.765z" fill="#FFF"/></g></svg>